<?xml version="1.0" encoding="UTF-8" standalone="no"?>
<!-- Created with Inkscape (http://www.inkscape.org/) -->

<svg
   xmlns:dc="http://purl.org/dc/elements/1.1/"
   xmlns:cc="http://creativecommons.org/ns#"
   xmlns:rdf="http://www.w3.org/1999/02/22-rdf-syntax-ns#"
   xmlns:svg="http://www.w3.org/2000/svg"
   xmlns="http://www.w3.org/2000/svg"
   xmlns:sodipodi="http://sodipodi.sourceforge.net/DTD/sodipodi-0.dtd"
   xmlns:inkscape="http://www.inkscape.org/namespaces/inkscape"
   width="300mm"
   height="100mm"
   viewBox="0 0 300 100"
   version="1.1"
   id="svg8"
   inkscape:version="0.92.3 (2405546, 2018-03-11)"
   sodipodi:docname="logo.svg">
  <defs
     id="defs2" />
  <sodipodi:namedview
     id="base"
     pagecolor="#ffffff"
     bordercolor="#666666"
     borderopacity="1.0"
     inkscape:pageopacity="0.0"
     inkscape:pageshadow="2"
     inkscape:zoom="0.7"
     inkscape:cx="482.85714"
     inkscape:cy="274.28571"
     inkscape:document-units="mm"
     inkscape:current-layer="flowRoot4518"
     showgrid="false"
     inkscape:window-width="1949"
     inkscape:window-height="1034"
     inkscape:window-x="1648"
     inkscape:window-y="287"
     inkscape:window-maximized="0" />
  <metadata
     id="metadata5">
    <rdf:RDF>
      <cc:Work
         rdf:about="">
        <dc:format>image/svg+xml</dc:format>
        <dc:type
           rdf:resource="http://purl.org/dc/dcmitype/StillImage" />
        <dc:title></dc:title>
      </cc:Work>
    </rdf:RDF>
  </metadata>
  <g
     inkscape:label="Layer 1"
     inkscape:groupmode="layer"
     id="layer1"
     transform="translate(0,-197)">
    <g
       aria-label="petrify"
       transform="matrix(1.9015618,0,0,1.9015618,-96.200993,119.97144)"
       style="font-style:normal;font-variant:normal;font-weight:normal;font-stretch:normal;font-size:40px;line-height:125%;font-family:Arial;-inkscape-font-specification:Arial;letter-spacing:0px;word-spacing:0px;fill:#000000;fill-opacity:1;stroke:none;stroke-width:1px;stroke-linecap:butt;stroke-linejoin:miter;stroke-opacity:1"
       id="flowRoot4518">
      <path
         id="logo"
         style="font-style:normal;font-variant:normal;font-weight:normal;font-stretch:normal;font-family:'Russo One';-inkscape-font-specification:'Russo One'"
         d="m 183.61562,84.040724 q -2.12,0 -5.2,-0.4 v -5.2 h 3.6 q 1.52,0 1.96,-0.84 0.48,-0.84 -0.16,-2.36 l -8.2,-19.6 h 7.4 l 5,13.6 4.2,-13.6 h 7.4 l -8,22 q -1.16,3.16 -3,4.76 -1.84,1.64 -5,1.64 z m -6.36875,-29.8 q -1.16,-0.08 -3.08,-0.24 -1.92,-0.16 -3.32,-0.16 -1.4,0 -1.8,0.4 -0.4,0.4 -0.4,1 v 2 h 6.6 v 5.4 h -6.6 v 14.2 h -7 v -14.2 h -2.8 v -5.4 h 2.8 v -2.8 q 0,-2.72 1.64,-4.36 1.64,-1.64 4.36,-1.64 2.44,0 5.16,0.16 2.72,0.16 4.44,0.24 z m -21.2125,2.2 v 20.4 h -7 v -15 h -3 v -5.4 z m -7,-8 h 7 v 5.6 h -7 z m -8.0375,13 q -2.52,0 -5.2,1.2 v 14.2 h -7 v -21.2 h 6.2 l 0.4,2.6 q 3.44,-3 7.2,-3 h 1.8 v 6.2 z m -14.97812,15.4 q -3.88,0.4 -7.6,0.4 -2.72,0 -4.36,-1.64 -1.64,-1.64 -1.64,-4.36 v -10.2 h -2.4 v -5.4 h 2.4 l 0.8,-4.8 h 6.2 v 4.8 h 5 v 5.4 h -5 v 9.2 q 0,0.6 0.4,1 0.4,0.4 1,0.4 h 5.2 z M 93.234483,55.240858 c -2,0 -3.573495,0.573287 -4.720162,1.719954 -1.119999,1.120001 -1.680006,2.679942 -1.680006,4.679942 V 71.2406 c 0,1.813334 0.546724,3.26675 1.640057,4.360083 1.093335,1.093333 2.546751,1.640058 4.360083,1.640058 4.186668,0 8.853215,-0.266721 13.999875,-0.800055 v -5.000073 c -5.09333,0.4 -8.959981,0.600042 -11.599981,0.600042 -0.399999,0 -0.733403,-0.133362 -1.000069,-0.400028 -0.266667,-0.266666 -0.400027,-0.599796 -0.400027,-0.999797 v -1.427816 -0.172294 -4.074736 -0.925336 -2.19988 c 0,-1.066667 0.533443,-1.60011 1.60011,-1.60011 h 3.599977 c 1.06667,0 1.60011,0.533443 1.60011,1.60011 v 2.19988 c -4.954227,0.26803 -3.82249,-0.917848 -3.730149,0.925336 v 4.074736 h 10.730089 v -7.399966 c 0,-2 -0.57329,-3.559941 -1.71996,-4.679942 -1.12,-1.146667 -2.67994,-1.719954 -4.67994,-1.719954 z m -17.434352,0 c -0.906667,0 -2.02668,0.199769 -3.360014,0.599769 -1.306667,0.373333 -2.586876,0.973456 -3.84021,1.800123 l -0.400028,-2.000137 h -6.199882 v 28.000025 h 6.999938 v -0.925064 -5.87486 -5.400101 -0.788641 -8.811204 c 1.786667,-0.533333 3.386726,-0.800055 4.800059,-0.800055 h 1.400096 c 0.4,0 0.73313,0.13336 0.999797,0.400028 0.266666,0.266666 0.400028,0.600069 0.400028,1.000068 v 7.399966 c 0,1.066666 -0.533172,1.599838 -1.599839,1.599838 H 71.86236 l 1.11312,5.400101 h 4.224476 c 2,0 3.559942,-0.560008 4.679941,-1.680007 1.146667,-1.146667 1.720227,-2.719891 1.720227,-4.719891 v -9.200089 c 0,-1.813334 -0.546724,-3.26675 -1.640059,-4.360083 -1.093333,-1.093333 -2.546749,-1.639786 -4.360081,-1.639786 z"
         inkscape:connector-curvature="0" />
    </g>
  </g>
</svg>
