<?xml version="1.0" encoding="UTF-8" standalone="no"?>
<!-- Created with Inkscape (http://www.inkscape.org/) -->

<svg
   xmlns:dc="http://purl.org/dc/elements/1.1/"
   xmlns:cc="http://creativecommons.org/ns#"
   xmlns:rdf="http://www.w3.org/1999/02/22-rdf-syntax-ns#"
   xmlns:svg="http://www.w3.org/2000/svg"
   xmlns="http://www.w3.org/2000/svg"
   xmlns:sodipodi="http://sodipodi.sourceforge.net/DTD/sodipodi-0.dtd"
   xmlns:inkscape="http://www.inkscape.org/namespaces/inkscape"
   width="400mm"
   height="100mm"
   viewBox="0 0 400 100"
   version="1.1"
   id="svg8"
   inkscape:version="0.92.3 (2405546, 2018-03-11)"
   sodipodi:docname="rocks.svg">
  <defs
     id="defs2" />
  <sodipodi:namedview
     id="base"
     pagecolor="#ffffff"
     bordercolor="#666666"
     borderopacity="1.0"
     inkscape:pageopacity="0.0"
     inkscape:pageshadow="2"
     inkscape:zoom="0.7"
     inkscape:cx="482.85714"
     inkscape:cy="274.28571"
     inkscape:document-units="mm"
     inkscape:current-layer="flowRoot4640"
     showgrid="false"
     inkscape:window-width="1949"
     inkscape:window-height="1034"
     inkscape:window-x="1647"
     inkscape:window-y="285"
     inkscape:window-maximized="0" />
  <metadata
     id="metadata5">
    <rdf:RDF>
      <cc:Work
         rdf:about="">
        <dc:format>image/svg+xml</dc:format>
        <dc:type
           rdf:resource="http://purl.org/dc/dcmitype/StillImage" />
        <dc:title></dc:title>
      </cc:Work>
    </rdf:RDF>
  </metadata>
  <g
     inkscape:label="Layer 1"
     inkscape:groupmode="layer"
     id="layer1"
     transform="translate(0,-197)">
    <g
       aria-label="petrify"
       transform="matrix(1.9015618,0,0,1.9015618,-96.200993,119.97144)"
       style="font-style:normal;font-variant:normal;font-weight:normal;font-stretch:normal;font-size:40px;line-height:125%;font-family:Arial;-inkscape-font-specification:Arial;letter-spacing:0px;word-spacing:0px;fill:#000000;fill-opacity:1;stroke:none;stroke-width:1px;stroke-linecap:butt;stroke-linejoin:miter;stroke-opacity:1"
       id="flowRoot4518">
      <g
         aria-label="rocks"
         transform="matrix(1.2790533,0,0,1.2790533,265.91669,246.92285)"
         style="font-style:normal;font-variant:normal;font-weight:normal;font-stretch:normal;font-size:40px;line-height:125%;font-family:Arial;-inkscape-font-specification:Arial;letter-spacing:0px;word-spacing:0px;fill:#000000;fill-opacity:1;stroke:none;stroke-width:1px;stroke-linecap:butt;stroke-linejoin:miter;stroke-opacity:1"
         id="flowRoot4601">
        <g
           aria-label="ROCKS"
           transform="matrix(1.0198824,0,0,1.0198824,111.47745,228.50842)"
           style="font-style:normal;font-variant:normal;font-weight:normal;font-stretch:normal;font-size:40px;line-height:125%;font-family:Arial;-inkscape-font-specification:Arial;letter-spacing:0px;word-spacing:0px;fill:#000000;fill-opacity:1;stroke:none;stroke-width:1px;stroke-linecap:butt;stroke-linejoin:miter;stroke-opacity:1"
           id="flowRoot4640">
          <path
             id="rocks"
             style="font-style:normal;font-variant:normal;font-weight:normal;font-stretch:normal;font-family:'Russo One';-inkscape-font-specification:'Russo One'"
             d="m -161.45367,-354.67412 q 10.96,0.6 14.84,0.6 0.92,0 1.44,-0.52 0.56,-0.56 0.56,-1.48 v -3.6 h -9.2 q -4.2,0 -6.12,-1.88 -1.88,-1.92 -1.88,-6.12 v -1.2 q 0,-4.2 1.88,-6.08 1.92,-1.92 6.12,-1.92 h 14.04 v 5.6 h -12.44 q -2.4,0 -2.4,2.4 v 0.8 q 0,2.4 2.4,2.4 h 7.2 q 3.92,0 5.76,1.84 1.84,1.84 1.84,5.76 v 2 q 0,3.92 -1.84,5.76 -1.84,1.84 -5.76,1.84 -2.04,0 -4.32,-0.08 l -3.68,-0.16 q -4.08,-0.2 -8.44,-0.56 z m -18.99125,5.8 h -7.2 v -28 h 7.2 v 11 h 3.6 l 6.24,-11 h 7.6 l -7.84,13.8 7.8,14.2 h -7.6 l -6.2,-11.4 h -3.6 z m -10.36563,-0.4 q -8.92,0.8 -14.8,0.8 -3.92,0 -5.76,-1.84 -1.84,-1.84 -1.84,-5.76 v -12.8 q 0,-4.2 1.88,-6.08 1.92,-1.92 6.12,-1.92 h 14.4 v 5.6 h -12.8 q -2.4,0 -2.4,2.4 v 12.8 q 0,0.92 0.52,1.48 0.56,0.52 1.4,0.52 0.84,0 1.84,0 1,-0.04 2.08,-0.08 1.08,-0.04 2.16,-0.08 1.12,-0.04 2.84,-0.16 1.76,-0.12 4.36,-0.28 z m -32.81875,-20 q 0,-2.4 -2.4,-2.4 h -6.8 q -2.4,0 -2.4,2.4 v 12.8 q 0,2.4 2.4,2.4 h 6.8 q 2.4,0 2.4,-2.4 z m 7.2,12.8 q 0,4.2 -1.92,6.12 -1.88,1.88 -6.08,1.88 h -10 q -4.2,0 -6.12,-1.88 -1.88,-1.92 -1.88,-6.12 v -12.8 q 0,-4.2 1.88,-6.08 1.92,-1.92 6.12,-1.92 h 10 q 4.2,0 6.08,1.92 1.92,1.88 1.92,6.08 z m -54.02812,-20.4 h 16.8 q 4.2,0 6.08,1.92 1.92,1.88 1.92,6.08 v 3.6 q 0,3.32 -1.12,5.16 -1.08,1.84 -3.48,2.44 l 5,8.8 h -7.8 l -4.6,-8.4 h -5.6 v 8.4 h -7.2 z m 17.6,8 q 0,-2.4 -2.4,-2.4 h -8 v 8.4 h 8 q 2.4,0 2.4,-2.4 z"
             inkscape:connector-curvature="0" />
        </g>
      </g>
    </g>
  </g>
</svg>
