<?xml version="1.0" encoding="UTF-8" standalone="no"?>
<!-- Created with Inkscape (http://www.inkscape.org/) -->

<svg
   xmlns:dc="http://purl.org/dc/elements/1.1/"
   xmlns:cc="http://creativecommons.org/ns#"
   xmlns:rdf="http://www.w3.org/1999/02/22-rdf-syntax-ns#"
   xmlns:svg="http://www.w3.org/2000/svg"
   xmlns="http://www.w3.org/2000/svg"
   xmlns:sodipodi="http://sodipodi.sourceforge.net/DTD/sodipodi-0.dtd"
   xmlns:inkscape="http://www.inkscape.org/namespaces/inkscape"
   width="300mm"
   height="100mm"
   viewBox="0 0 300 100"
   version="1.1"
   id="svg8"
   inkscape:version="0.92.3 (2405546, 2018-03-11)"
   sodipodi:docname="rocks.svg">
  <defs
     id="defs2" />
  <sodipodi:namedview
     id="base"
     pagecolor="#ffffff"
     bordercolor="#666666"
     borderopacity="1.0"
     inkscape:pageopacity="0.0"
     inkscape:pageshadow="2"
     inkscape:zoom="0.7"
     inkscape:cx="482.85714"
     inkscape:cy="274.28571"
     inkscape:document-units="mm"
     inkscape:current-layer="flowRoot4601"
     showgrid="false"
     inkscape:window-width="1949"
     inkscape:window-height="1034"
     inkscape:window-x="1647"
     inkscape:window-y="285"
     inkscape:window-maximized="0" />
  <metadata
     id="metadata5">
    <rdf:RDF>
      <cc:Work
         rdf:about="">
        <dc:format>image/svg+xml</dc:format>
        <dc:type
           rdf:resource="http://purl.org/dc/dcmitype/StillImage" />
        <dc:title></dc:title>
      </cc:Work>
    </rdf:RDF>
  </metadata>
  <g
     inkscape:label="Layer 1"
     inkscape:groupmode="layer"
     id="layer1"
     transform="translate(0,-197)">
    <g
       aria-label="petrify"
       transform="matrix(1.9015618,0,0,1.9015618,-96.200993,119.97144)"
       style="font-style:normal;font-variant:normal;font-weight:normal;font-stretch:normal;font-size:40px;line-height:125%;font-family:Arial;-inkscape-font-specification:Arial;letter-spacing:0px;word-spacing:0px;fill:#000000;fill-opacity:1;stroke:none;stroke-width:1px;stroke-linecap:butt;stroke-linejoin:miter;stroke-opacity:1"
       id="flowRoot4518">
      <g
         aria-label="rocks"
         transform="matrix(1.2790533,0,0,1.2790533,265.91669,246.92285)"
         style="font-style:normal;font-variant:normal;font-weight:normal;font-stretch:normal;font-size:40px;line-height:125%;font-family:Arial;-inkscape-font-specification:Arial;letter-spacing:0px;word-spacing:0px;fill:#000000;fill-opacity:1;stroke:none;stroke-width:1px;stroke-linecap:butt;stroke-linejoin:miter;stroke-opacity:1"
         id="flowRoot4601">
        <path
           id="rocks"
           style="font-style:normal;font-variant:normal;font-weight:normal;font-stretch:normal;font-family:'Russo One';-inkscape-font-specification:'Russo One'"
           d="m -71.321484,-133.04639 q 8.12,0.6 12.8,0.6 0.6,0 1,-0.4 0.4,-0.4 0.4,-1 v -1.4 h -8.6 q -2.72,0 -4.36,-1.64 -1.64,-1.64 -1.64,-4.36 v -1.4 q 0,-2.72 1.64,-4.36 1.64,-1.64 4.36,-1.64 h 13.6 v 5.2 h -11.2 q -0.6,0 -1,0.4 -0.4,0.4 -0.4,1 0,0.6 0.4,1 0.4,0.4 1,0.4 h 7.2 q 2.72,0 4.36,1.64 1.64,1.64 1.64,4.36 v 1.6 q 0,2.72 -1.64,4.36 -1.64,1.64 -4.36,1.64 -7.08,0 -15.2,-0.8 z m -16.184375,-2.8 v 8.4 h -7 v -28 h 7 v 14.2 h 3.2 l 4.4,-7.4 h 7.4 l -6,10.2 6,11 h -7.4 l -4.6,-8.4 z m -10.23125,8 q -7.480001,0.8 -13.200001,0.8 -2.72,0 -4.36,-1.64 -1.64,-1.64 -1.64,-4.36 v -9.2 q 0,-3 1.68,-4.68 1.72,-1.72 4.72,-1.72 h 12.800001 v 5.4 h -10.600001 q -1.6,0 -1.6,1.6 v 7.8 q 0,0.6 0.4,1 0.4,0.4 1,0.4 3.6,0 10.800001,-0.6 z m -22.434371,-5.6 q 0,3 -1.72,4.72 -1.68,1.68 -4.68,1.68 h -9.2 q -3,0 -4.72,-1.68 -1.68,-1.72 -1.68,-4.72 v -9.2 q 0,-3 1.68,-4.68 1.72,-1.72 4.72,-1.72 h 9.2 q 3,0 4.68,1.72 1.72,1.68 1.72,4.68 z m -7,-8.6 q 0,-1.6 -1.6,-1.6 h -4.8 q -1.6,0 -1.6,1.6 v 8 q 0,1.6 1.6,1.6 h 4.8 q 1.6,0 1.6,-1.6 z m -20.05625,-0.8 q -2.52,0 -5.2,1.2 v 14.2 h -7 v -21.2 h 6.2 l 0.4,2.6 q 3.44,-3 7.2,-3 h 1.8 v 6.2 z"
           inkscape:connector-curvature="0" />
      </g>
    </g>
  </g>
</svg>
